<svg xmlns="http://www.w3.org/2000/svg" viewBox="0 0 200 200">
  <circle cx="100" cy="100" r="96" fill="#e8e4de" opacity=".35"/>
  <circle cx="100" cy="100" r="88" fill="#caa06a"/>
  <circle cx="100" cy="100" r="88" fill="none" stroke="#8a6a42" stroke-width="3" opacity=".5"/>
  <g fill="#f4efe8" opacity=".92">
    <rect x="52" y="58" width="34" height="34" rx="9" transform="rotate(-18 69 75)"/>
    <rect x="108" y="46" width="30" height="30" rx="8" transform="rotate(12 123 61)"/>
    <rect x="118" y="98" width="36" height="36" rx="9" transform="rotate(-8 136 116)"/>
    <rect x="58" y="112" width="28" height="28" rx="8" transform="rotate(22 72 126)"/>
    <rect x="92" y="86" width="26" height="26" rx="7" transform="rotate(35 105 99)"/>
  </g>
  <g stroke="#7a5330" stroke-width="1.5" opacity=".3" fill="none">
    <rect x="52" y="58" width="34" height="34" rx="9" transform="rotate(-18 69 75)"/>
    <rect x="108" y="46" width="30" height="30" rx="8" transform="rotate(12 123 61)"/>
    <rect x="118" y="98" width="36" height="36" rx="9" transform="rotate(-8 136 116)"/>
    <rect x="58" y="112" width="28" height="28" rx="8" transform="rotate(22 72 126)"/>
    <rect x="92" y="86" width="26" height="26" rx="7" transform="rotate(35 105 99)"/>
  </g>
  <path d="M150 34 L172 8" stroke="#f4efe8" stroke-width="6" stroke-linecap="round"/>
</svg>
