<?xml version="1.0" encoding="utf-8"?>
<!-- Generator: Adobe Illustrator 19.0.0, SVG Export Plug-In . SVG Version: 6.00 Build 0)  -->
<svg version="1.1" id="Capa_1" xmlns="http://www.w3.org/2000/svg" xmlns:xlink="http://www.w3.org/1999/xlink" x="0px" y="0px"
	 viewBox="-198 290.9 213.1 213.1" style="enable-background:new -198 290.9 213.1 213.1;" xml:space="preserve">
<style type="text/css">
	.st0{fill:#270A04;}
	.st1{fill:#723F20;}
</style>
<g>
	<path class="st0" d="M-155.2,337.3L-155.2,337.3l56.2,66.6V489h-28.9c-4.1,0-7.5,3.4-7.5,7.5s3.4,7.5,7.5,7.5h36.4H-55
		c4.1,0,7.5-3.4,7.5-7.5s-3.4-7.5-7.5-7.5h-28.9v-85.1l56.2-66.6l0,0l28.8-34.1c1.9-2.2,2.3-5.4,1.1-8c-1.2-2.6-3.9-4.3-6.8-4.3
		h-173.6c-2.9,0-5.6,1.7-6.8,4.3c-1.2,2.6-0.8,5.8,1.1,8L-155.2,337.3z M-91.4,389.6l-41.8-49.5h83.6L-91.4,389.6z M-20.8,305.9
		L-37,325h-108.9l-16.2-19.2H-20.8z"/>
</g>
<polygon class="st1" points="-91.4,389.6 -133.2,340 -49.6,340 "/>
</svg>
