<?xml version="1.0" encoding="utf-8"?>
<!-- Generator: Adobe Illustrator 19.0.0, SVG Export Plug-In . SVG Version: 6.00 Build 0)  -->
<svg version="1.1" id="Capa_1" xmlns="http://www.w3.org/2000/svg" xmlns:xlink="http://www.w3.org/1999/xlink" x="0px" y="0px"
	 viewBox="-424.5 606.8 142 185.1" style="enable-background:new -424.5 606.8 142 185.1;" xml:space="preserve">
<style type="text/css">
	.st0{fill:#0D0D0D;}
	.st1{fill:#F2C230;}
	.st2{fill:#591902;}
</style>
<g>
	<path class="st0" d="M-422.6,609.3c-1.4,1.6-2.1,3.7-1.8,5.9l16.2,138.1l0,0l3.8,32c0.4,3.8,3.6,6.6,7.4,6.6h87.1
		c3.8,0,7-2.8,7.4-6.6l3.8-32l0,0l16.2-138.1c0.3-2.1-0.4-4.3-1.8-5.9s-3.5-2.5-5.6-2.5H-417C-419.1,606.8-421.2,607.7-422.6,609.3z
		 M-315,763.3l-1.6,13.6h-73.7l-1.5-12.6l-4.5-38.1l-12.3-104.5h110.2L-312,738.1L-315,763.3z"/>
</g>
<polygon class="st0" points="-405.2,650.6 -301.7,650.6 -303.5,665.6 -403.4,665.6 "/>
<polygon class="st1" points="-403.4,665.6 -390.3,776.9 -316.6,776.9 -303.5,665.6 "/>
<g>
	<path class="st0" d="M-386.9,685.6c-0.7,0.8-1.1,1.9-0.9,3l8.1,69l0,0l1.9,16c0.2,1.9,1.8,3.3,3.7,3.3h43.5c1.9,0,3.5-1.4,3.7-3.3
		l1.9-16l0,0l8.1-69c0.1-1-0.2-2.1-0.9-3c-0.7-0.8-1.8-1.3-2.8-1.3h-63.5C-385.2,684.3-386.2,684.8-386.9,685.6z M-333.1,762.6
		l-0.8,6.8h-36.9l-0.8-6.3l-2.3-19l-6.1-52.3h55.1l-6.8,58.2L-333.1,762.6z"/>
</g>
<polygon class="st0" points="-378.2,707.3 -326.5,707.3 -327.4,714.8 -377.3,714.8 "/>
<polygon class="st2" points="-378.9,712.1 -371.9,771.1 -332.8,771.1 -325.9,712.1 "/>
</svg>
