<?xml version="1.0" encoding="utf-8"?>
<!-- Generator: Adobe Illustrator 19.0.0, SVG Export Plug-In . SVG Version: 6.00 Build 0)  -->
<svg version="1.1" id="Capa_1" xmlns="http://www.w3.org/2000/svg" xmlns:xlink="http://www.w3.org/1999/xlink" x="0px" y="0px"
	 viewBox="-658.5 911.7 142 185.1" style="enable-background:new -658.5 911.7 142 185.1;" xml:space="preserve">
<style type="text/css">
	.st0{fill:#0D0D0D;}
	.st1{fill:#F2B705;}
	.st2{fill:url(#SVGID_1_);}
</style>
<g>
	<path class="st0" d="M-656.6,914.2c-1.4,1.6-2.1,3.7-1.8,5.9l16.2,138.1l0,0l3.8,32c0.4,3.8,3.6,6.6,7.4,6.6h87.1
		c3.8,0,7-2.8,7.4-6.6l3.8-32l0,0l16.2-138.1c0.3-2.1-0.4-4.3-1.8-5.9c-1.4-1.6-3.5-2.5-5.6-2.5H-651
		C-653.1,911.7-655.2,912.6-656.6,914.2z M-549,1068.2l-1.6,13.6h-73.7l-1.5-12.6l-4.5-38.1l-12.3-104.5h110.2L-546,1043
		L-549,1068.2z"/>
</g>
<polygon class="st0" points="-639.2,955.5 -535.7,955.5 -537.5,970.5 -637.4,970.5 "/>
<polygon class="st1" points="-637.4,970.5 -624.3,1081.8 -550.6,1081.8 -537.5,970.5 "/>
<linearGradient id="SVGID_1_" gradientUnits="userSpaceOnUse" x1="-587.45" y1="-284.0001" x2="-587.45" y2="-265.158" gradientTransform="matrix(1 0 0 -1 0 797.7999)">
	<stop  offset="0" style="stop-color:#F23005"/>
	<stop  offset="2.891151e-002" style="stop-color:#F23505"/>
	<stop  offset="1" style="stop-color:#F23B05"/>
</linearGradient>
<polygon class="st2" points="-626.5,1063 -624.3,1081.8 -550.6,1081.8 -548.4,1063 "/>
</svg>
