<?xml version="1.0" encoding="utf-8"?>
<!-- Generator: Adobe Illustrator 19.0.0, SVG Export Plug-In . SVG Version: 6.00 Build 0)  -->
<svg version="1.1" id="Capa_1" xmlns="http://www.w3.org/2000/svg" xmlns:xlink="http://www.w3.org/1999/xlink" x="0px" y="0px"
	 viewBox="-383.7 544.6 188.6 250.3" style="enable-background:new -383.7 544.6 188.6 250.3;" xml:space="preserve">
<style type="text/css">
	.st0{fill:#F2F2F2;}
	.st1{fill:#5D6117;}
	.st2{fill:#892235;}
</style>
<g>
	<path d="M-353.2,628.2L-353.2,628.2l56.2,66.6v85.1h-28.9c-4.1,0-7.5,3.4-7.5,7.5c0,4.1,3.4,7.5,7.5,7.5h36.4h36.5
		c4.1,0,7.5-3.4,7.5-7.5c0-4.1-3.4-7.5-7.5-7.5h-28.9v-85.1l56.2-66.6l0,0l28.8-34.1c1.9-2.2,2.3-5.4,1.1-8
		c-1.2-2.6-3.9-4.3-6.8-4.3h-173.6c-2.9,0-5.6,1.7-6.8,4.3c-1.2,2.6-0.8,5.8,1.1,8L-353.2,628.2z M-289.4,680.5l-41.8-49.5h83.6
		L-289.4,680.5z M-218.8,596.8l-16.2,19.1h-108.9l-16.2-19.2h141.3V596.8z"/>
</g>
<polygon class="st0" points="-289.4,680.5 -331.2,630.9 -247.6,630.9 "/>
<circle class="st1" cx="-213.7" cy="563.2" r="18.6"/>
<circle class="st2" cx="-204.2" cy="556.3" r="6.9"/>
</svg>
