<?xml version="1.0" encoding="utf-8"?>
<!-- Generator: Adobe Illustrator 19.0.0, SVG Export Plug-In . SVG Version: 6.00 Build 0)  -->
<svg version="1.1" id="Capa_1" xmlns="http://www.w3.org/2000/svg" xmlns:xlink="http://www.w3.org/1999/xlink" x="0px" y="0px"
	 viewBox="-679.4 911.7 219.7 185.1" style="enable-background:new -679.4 911.7 219.7 185.1;" xml:space="preserve">
<style type="text/css">
	.st0{fill:#FFFFFF;}
	.st1{fill:#8C4303;}
	.st2{fill:none;stroke:#000000;stroke-width:15;stroke-miterlimit:10;}
</style>
<g>
	<path d="M-638.6,914.2c-1.4,1.6-2.1,3.7-1.8,5.9l16.2,138.1l0,0l3.8,32c0.4,3.8,3.6,6.6,7.4,6.6h87.1c3.8,0,7-2.8,7.4-6.6l3.8-32
		l0,0l16.2-138.1c0.3-2.1-0.4-4.3-1.8-5.9s-3.5-2.5-5.6-2.5H-633C-635.1,911.7-637.2,912.6-638.6,914.2z M-531,1068.2l-1.6,13.6
		h-73.7l-1.5-12.6l-4.5-38.1l-12.3-104.5h110.2L-528,1043L-531,1068.2z"/>
</g>
<polygon class="st0" points="-621.2,955.5 -517.7,955.5 -519.5,970.5 -619.4,970.5 "/>
<polygon class="st1" points="-619.4,970.5 -606.3,1081.8 -532.6,1081.8 -519.5,970.5 "/>
<path class="st2" d="M-626.9,1025.4c0,0-45,0-45-29.6c0-30.4,42-29.6,42-29.6"/>
</svg>
