<?xml version="1.0" encoding="utf-8"?>
<!-- Generator: Adobe Illustrator 19.0.0, SVG Export Plug-In . SVG Version: 6.00 Build 0)  -->
<svg version="1.1" id="Capa_1" xmlns="http://www.w3.org/2000/svg" xmlns:xlink="http://www.w3.org/1999/xlink" x="0px" y="0px"
	 viewBox="-190.5 301.9 142.1 185.1" style="enable-background:new -190.5 301.9 142.1 185.1;" xml:space="preserve">
<g>
	<path d="M-188.6,304.4c-1.4,1.6-2.1,3.7-1.8,5.9l16.2,138.1v0l3.8,32c0.4,3.8,3.6,6.6,7.4,6.6h87.1c3.8,0,7-2.8,7.4-6.6l3.8-32v0
		l16.2-138.1c0.3-2.1-0.4-4.3-1.8-5.9c-1.4-1.6-3.5-2.5-5.6-2.5H-183C-185.1,301.9-187.2,302.8-188.6,304.4z M-81,458.4l-1.6,13.6
		h-73.7l-1.5-12.6l-4.5-38.1l-12.3-104.5h110.2L-78,433.2L-81,458.4z"/>
</g>
<polygon points="-171.2,345.7 -67.7,345.7 -69.5,360.7 -169.4,360.7 "/>
</svg>
