<?xml version="1.0" encoding="utf-8"?>
<!-- Generator: Adobe Illustrator 19.0.0, SVG Export Plug-In . SVG Version: 6.00 Build 0)  -->
<svg version="1.1" id="Capa_1" xmlns="http://www.w3.org/2000/svg" xmlns:xlink="http://www.w3.org/1999/xlink" x="0px" y="0px"
	 viewBox="-199 290.3 158.8 302.7" style="enable-background:new -199 290.3 158.8 302.7;" xml:space="preserve">
<g>
	<path d="M-175.4,461.6c12.7,11.2,29.4,18.1,47.7,19.6V578h-20.8c-4.1,0-7.5,3.4-7.5,7.5s3.4,7.5,7.5,7.5h28.3h28.3
		c4.1,0,7.5-3.4,7.5-7.5s-3.4-7.5-7.5-7.5h-20.8v-96.7c18.8-1.4,35.9-8.2,48.9-19.7c15.2-13.5,23.6-32.4,23.6-53.5
		c0-23.2-10-92.5-25.5-114.6c-1.4-2-3.7-3.2-6.1-3.2h-95.5c-2.4,0-4.7,1.2-6.1,3.2C-189,315.7-199,385-199,408.2
		C-199,429.2-190.6,448.2-175.4,461.6z M-163.4,305.3h87.6c8.6,17.9,13.9,36.1,17.2,55.3h-120C-175.7,343.1-172.1,323.4-163.4,305.3
		z M-55.7,375.7c0,0,2,22.6,2,26.5c0,11.4-1,17.6-1,17.7c-3.8,29.8-30.5,46.7-64.9,46.7c-34.4,0-60.2-20.9-63.9-50.8
		c0,0-1.1-16.2,0.1-28.1c0.6-5.7,1.9-12,1.9-12H-55.7z"/>
</g>
</svg>
